<svg width="18" height="15" viewBox="0 0 18 15" fill="none" xmlns="http://www.w3.org/2000/svg">
<path fill-rule="evenodd" clip-rule="evenodd" d="M8.83324 0.103486C8.74989 0.202937 8.74654 0.223554 8.74654 0.635247V1.06352L8.57566 1.10751C8.07533 1.23629 7.60545 1.62743 7.39097 2.09368L7.27701 2.34141L4.40359 1.8595C2.82322 1.59444 1.49588 1.38585 1.45399 1.39594C1.35373 1.42006 1.2525 1.52435 1.22584 1.63096C1.19664 1.7478 1.27001 1.91089 1.37583 1.96439C1.42388 1.98871 1.81354 2.06657 2.24173 2.1374C2.66992 2.20823 3.03717 2.27667 3.05787 2.28952C3.08228 2.30465 2.55121 3.29593 1.54775 5.10844L0 7.90399L0.0237425 8.11399C0.178618 9.48296 1.11584 10.7223 2.34765 11.187C3.56917 11.6478 4.96349 11.3331 5.8915 10.3873C6.47732 9.79022 6.83124 9.08849 6.97105 8.24687C6.99345 8.11197 7.00172 7.96137 6.98943 7.91223C6.97714 7.86306 6.34136 6.62159 5.57656 5.15341C4.81176 3.68522 4.19119 2.47934 4.19755 2.47369C4.20391 2.46804 4.78172 2.55962 5.48159 2.67723C6.18146 2.79481 6.85465 2.90761 6.97754 2.92793L7.20096 2.96485L7.24065 3.20095C7.33153 3.74223 7.71066 4.25129 8.20972 4.50219C8.35431 4.57486 8.53423 4.64479 8.60958 4.65757L8.74654 4.68081V9.53771V14.3946H7.05844H5.37035L5.28365 14.4981C5.23483 14.5564 5.19696 14.6434 5.19696 14.6973C5.19696 14.7512 5.23483 14.8382 5.28365 14.8965L5.37035 15H9.06925H12.7681L12.8503 14.911C12.9649 14.7867 12.9623 14.602 12.8441 14.4833L12.7558 14.3946H11.0693H9.38279V9.53607V4.67748L9.5251 4.63944C9.94335 4.52765 10.4142 4.15288 10.6173 3.77011C10.6772 3.65731 10.7441 3.56546 10.7661 3.56603C10.788 3.56657 11.5519 3.69309 12.4636 3.84716C13.7066 4.05723 14.1186 4.13828 14.1109 4.17124C14.1009 4.21423 11.5773 8.78943 11.1818 9.48158L10.9816 9.832L11.0022 10.0547C11.0663 10.7479 11.4236 11.575 11.8959 12.1235C13.2551 13.7023 15.5446 13.7596 16.9562 12.2503C17.4762 11.6942 17.8161 10.9948 17.9449 10.2155L18 9.88258L17.8227 9.5405C17.7252 9.35237 17.3737 8.67629 17.0415 8.03812C16.7094 7.39994 16.1389 6.30373 15.7738 5.6021C15.4087 4.90046 15.1164 4.31993 15.1243 4.31203C15.1321 4.30413 15.4794 4.35373 15.8959 4.42228C16.543 4.52876 16.6678 4.54083 16.7534 4.50525C16.8518 4.46432 16.9508 4.32336 16.9508 4.22411C16.9508 4.13815 16.8825 4.01758 16.8069 3.97019C16.7673 3.9453 15.4166 3.70399 13.8056 3.43389L10.8764 2.94283L10.8332 2.64141C10.771 2.20816 10.6216 1.90924 10.3118 1.59821C10.0654 1.35091 9.83693 1.20908 9.54429 1.12181L9.38279 1.07364V0.687073C9.38279 0.139439 9.3125 0 9.03637 0C8.94746 0 8.89944 0.0244505 8.83324 0.103486ZM9.5612 1.8108C9.81383 1.93571 9.99164 2.11971 10.115 2.38386C10.1899 2.54428 10.2032 2.61874 10.2032 2.87627C10.2032 3.15077 10.1928 3.20085 10.094 3.40234C9.96703 3.66155 9.78546 3.83939 9.52075 3.96407C9.35881 4.04031 9.28819 4.05269 9.01443 4.05269C8.71617 4.05269 8.68322 4.04556 8.48642 3.93837C8.23527 3.80159 8.06686 3.62314 7.94738 3.36726C7.87254 3.20691 7.85914 3.13234 7.85918 2.87556C7.85918 2.61985 7.87271 2.54395 7.94628 2.38635C8.16618 1.91533 8.56829 1.67105 9.0876 1.69302C9.29525 1.70176 9.38674 1.72453 9.5612 1.8108ZM4.87843 5.17217C5.57412 6.50929 6.13626 7.61045 6.12758 7.61912C6.11894 7.62784 4.93402 7.63107 3.49443 7.62632L0.877015 7.61771L2.20958 5.21274C3.65935 2.59624 3.59255 2.7151 3.60494 2.73037C3.60966 2.73626 4.18275 3.83506 4.87843 5.17217ZM15.0935 5.65863C15.365 6.18121 15.9316 7.26918 16.3527 8.07639C16.7737 8.88356 17.1182 9.55328 17.1182 9.56462C17.1182 9.57592 15.9353 9.5852 14.4895 9.5852C13.0437 9.5852 11.8608 9.57948 11.8608 9.57249C11.8608 9.56549 12.446 8.50231 13.1613 7.20982C13.8766 5.91733 14.4799 4.82583 14.502 4.78419C14.524 4.74256 14.5551 4.70852 14.571 4.70852C14.5869 4.70852 14.822 5.13605 15.0935 5.65863ZM6.29981 8.32803C6.32582 8.35298 6.22778 8.68762 6.1169 8.95241C5.6579 10.0486 4.62869 10.7619 3.50588 10.7619C2.25368 10.7619 1.19628 9.93128 0.775517 8.61716C0.724081 8.4565 0.69036 8.31148 0.700607 8.29483C0.718589 8.2656 6.26906 8.29853 6.29981 8.32803ZM17.2796 10.2743C17.3117 10.3065 17.1736 10.7394 17.0479 11.0004C16.7859 11.5447 16.4419 11.9508 15.9844 12.256C14.8191 13.0333 13.2806 12.7967 12.364 11.6994C12.0521 11.326 11.787 10.7895 11.6781 10.3112L11.6558 10.2131L14.4596 10.2355C16.0017 10.2479 17.2707 10.2653 17.2796 10.2743Z" fill="#525252"/>
</svg>
