<svg width="16" height="15" viewBox="0 0 16 15" fill="none" xmlns="http://www.w3.org/2000/svg">
<path fill-rule="evenodd" clip-rule="evenodd" d="M3.39199 0.105509C3.21492 0.159348 3.07013 0.266192 3.07013 0.342882C3.07013 0.419571 3.41576 0.69388 3.83825 0.952538C4.64778 1.44805 6.46747 2.84057 6.75576 3.1852C6.92016 3.38167 6.81449 3.50521 3.46281 7.03533C1.55824 9.04126 0 10.7308 0 10.79C0 10.9261 1.40741 12.4052 1.53685 12.4052C1.58983 12.4052 3.19749 10.7575 5.10948 8.74369L8.58586 5.0822L9.2395 5.84857C9.98158 6.71866 10.9052 7.99067 11.216 8.57069C11.4646 9.03469 11.6522 9.06839 11.7963 8.67503C12.1718 7.6501 11.5582 5.31707 10.5459 3.92058L10.1815 3.41798L10.5378 2.85267C10.7337 2.54184 10.894 2.25 10.894 2.2043C10.894 2.09297 9.77221 0.92781 9.66496 0.92781C9.61861 0.92781 9.36359 1.09215 9.09817 1.293C8.83285 1.49385 8.58883 1.65819 8.55595 1.65819C8.52307 1.65819 8.33371 1.52276 8.13524 1.35727C7.60589 0.91602 6.56462 0.342777 5.94892 0.153818C5.35797 -0.0275241 3.91877 -0.0547569 3.39199 0.105509ZM6.1147 0.668213C6.45459 0.796342 6.98919 1.0598 7.30254 1.25366C8.0366 1.70764 9.96444 3.71149 10.4769 4.5532C10.9318 5.30048 11.3564 6.45833 11.4813 7.29253C11.6033 8.10721 11.4878 8.24338 11.144 7.69038C10.4529 6.57885 8.29746 4.03891 7.16132 2.99718C6.02943 1.95942 5.94208 1.88878 4.80594 1.09402C3.91857 0.473411 3.86638 0.418424 4.12595 0.378566C4.61905 0.302815 5.4773 0.427814 6.1147 0.668213ZM10.0449 1.85894L10.4243 2.26837L10.2054 2.64148C10.085 2.84672 9.95503 3.0146 9.91661 3.0146C9.87818 3.0146 9.62554 2.77713 9.35517 2.48685C8.95804 2.06042 8.89227 1.94168 9.01231 1.86802C9.09401 1.81783 9.24999 1.70462 9.35893 1.61645C9.62703 1.39953 9.61514 1.39536 10.0449 1.85894ZM4.93033 8.3064L1.53873 11.8808L1.01552 11.3364L0.49231 10.7921L3.88391 7.21772L7.27551 3.64335L7.79872 4.18769L8.32193 4.73203L4.93033 8.3064ZM12.9844 7.98858C12.8147 8.45561 12.7962 8.59824 12.8963 8.66522C13.109 8.80744 13.138 8.77457 13.3566 8.14259C13.6132 7.40115 13.6134 7.39687 13.3837 7.39687C13.2509 7.39687 13.1392 7.56225 12.9844 7.98858ZM9.33418 7.67462C9.14551 7.75486 9.18156 7.88988 9.53225 8.41648C9.70923 8.68223 9.88412 8.946 9.92087 9.00245C9.96276 9.06693 10.0451 9.05483 10.1423 8.96979C10.2795 8.8498 10.2507 8.76476 9.88789 8.22001C9.66288 7.88205 9.47411 7.60931 9.46837 7.61379C9.46263 7.61828 9.40231 7.64572 9.33418 7.67462ZM8.61032 9.23033C8.54357 9.31505 8.50643 9.39915 8.52772 9.4171C8.54911 9.43515 8.7763 9.59917 9.03261 9.78155C9.46154 10.0869 9.5062 10.0985 9.59296 9.92784C9.6707 9.77467 9.60395 9.68431 9.20939 9.40927C8.79651 9.1214 8.7152 9.09709 8.61032 9.23033ZM10.459 10.233L9.5784 10.9735L8.66479 12.9676L7.75108 14.9615L11.8634 14.9887C14.1252 15.0038 15.9863 15.0038 15.9993 14.9887C16.0123 14.9737 15.8375 13.952 15.6108 12.7182L15.1986 10.4749L13.4673 9.98752C12.5149 9.71947 11.6467 9.49848 11.5377 9.49629C11.4288 9.4942 10.9434 9.82569 10.459 10.233ZM13.0976 10.327C13.792 10.5086 14.3602 10.6866 14.3601 10.7226C14.3599 10.8125 12.1886 12.0934 12.0476 12.0868C11.985 12.0839 11.5157 11.8574 11.0048 11.5833L10.0757 11.0851L10.8001 10.4921C11.2138 10.1534 11.591 9.92001 11.6797 9.94798C11.765 9.97479 12.4031 10.1454 13.0976 10.327ZM7.22965 10.4142C7.22965 10.6535 7.3477 10.704 8.12425 10.7966C8.68618 10.8636 8.73223 10.8539 8.69955 10.6749C8.6739 10.5347 8.5399 10.459 8.21912 10.4037C7.9745 10.3616 7.65184 10.3028 7.502 10.2732C7.28383 10.23 7.22965 10.258 7.22965 10.4142ZM15.2191 12.778C15.3952 13.692 15.5414 14.4751 15.544 14.5181C15.5466 14.561 14.7082 14.5963 13.6808 14.5963H11.8129L12.0446 13.5864C12.1721 13.031 12.3107 12.5417 12.3527 12.499C12.5303 12.3186 14.7152 11.0588 14.8029 11.0862C14.8557 11.1027 15.043 11.864 15.2191 12.778ZM10.886 11.9835L11.8647 12.501L11.6739 13.4182C11.569 13.9227 11.4635 14.3942 11.4393 14.4659C11.4068 14.5624 11.0061 14.5963 9.89611 14.5963C8.5093 14.5963 8.40185 14.5826 8.46266 14.4137C8.67539 13.8227 9.76766 11.4734 9.83114 11.4701C9.87303 11.4679 10.3476 11.699 10.886 11.9835Z" fill="#525252"/>
</svg>
