<svg width="20" height="12" viewBox="0 0 20 12" fill="none" xmlns="http://www.w3.org/2000/svg">
<path fill-rule="evenodd" clip-rule="evenodd" d="M3.43668 0.0164394C2.66441 0.103798 1.88595 0.624845 1.49098 1.3188C0.927801 2.30831 1.1114 3.58392 1.93546 4.4071L2.22561 4.69691H1.43319C0.466616 4.69691 0.293485 4.75756 0.0821085 5.17034C-0.124057 5.57286 0.072989 6.09363 0.505792 6.29019C0.588891 6.32793 1.84217 6.34963 4.8924 6.36619L9.16269 6.38937L7.76541 8.40308C6.99691 9.51064 6.34733 10.4913 6.32193 10.5824C6.17043 11.1259 6.44071 11.6835 6.97318 11.9259C7.11672 11.9912 7.47261 12 9.97424 12C12.2442 12 12.8482 11.9874 12.9909 11.9371C13.5323 11.7464 13.8511 11.0776 13.6572 10.5394C13.6082 10.4034 11.8206 7.77826 11.0606 6.72624C10.9365 6.55449 10.835 6.40324 10.835 6.39007C10.835 6.37695 12.7267 6.36619 15.0389 6.36619C19.4349 6.36619 19.4086 6.36735 19.6871 6.16393C19.8488 6.04578 20.0013 5.73604 20 5.52849C19.9985 5.29354 19.8488 5.00563 19.6493 4.85382L19.4735 4.72009L18.641 4.70553L17.8085 4.69097L18.1133 4.36904C18.6553 3.79647 18.8594 3.25581 18.8276 2.47714C18.8035 1.88631 18.7018 1.56975 18.3897 1.11343C17.9021 0.400884 17.1693 0.0071658 16.3253 0.0044764C15.8498 0.00294623 15.568 0.0637817 15.1635 0.255146C14.7645 0.444006 14.2087 0.989582 14.0048 1.39267C13.4946 2.40137 13.6758 3.57891 14.4643 4.37887L14.7777 4.69691H10.0057H5.23373L5.4988 4.43029C5.96422 3.96215 6.17704 3.5541 6.26991 2.952C6.52521 1.29668 5.10722 -0.17256 3.43668 0.0164394ZM4.31685 0.565215C5.08684 0.804014 5.63811 1.44757 5.77429 2.26658C5.998 3.61197 4.7437 4.8803 3.40765 4.65968C2.71308 4.54496 2.12776 4.10483 1.82509 3.46957C1.42235 2.62445 1.62591 1.64617 2.3402 0.994219C2.55423 0.798867 3.01286 0.555848 3.25108 0.511566C3.54686 0.456573 4.04801 0.481797 4.31685 0.565215ZM16.8942 0.573654C17.875 0.902919 18.4864 1.88125 18.3315 2.8735C18.1891 3.78516 17.4794 4.50267 16.5655 4.65884C15.5715 4.82869 14.525 4.14493 14.2545 3.1487C14.1288 2.68594 14.1703 2.11927 14.3594 1.71651C14.61 1.18299 15.0888 0.754167 15.65 0.560763C15.9816 0.44651 16.5325 0.452214 16.8942 0.573654ZM2.92273 1.16699C2.62016 1.36188 2.38827 1.62377 2.24882 1.92809C2.13288 2.18117 2.13013 2.20296 2.20095 2.31063C2.24501 2.37773 2.32057 2.42484 2.38403 2.42484C2.49086 2.42484 2.64608 2.29755 2.64608 2.21001C2.64608 2.06673 2.94274 1.72026 3.17943 1.58714C3.4881 1.41353 3.56049 1.25435 3.39239 1.11867C3.24876 1.0028 3.16421 1.01147 2.92273 1.16699ZM15.4135 1.21085C14.9858 1.48633 14.6182 2.09905 14.7421 2.32983C14.806 2.44886 15.0273 2.45688 15.124 2.34369C15.1621 2.29904 15.2214 2.19197 15.2557 2.10568C15.3485 1.87226 15.5199 1.69179 15.7672 1.56687C16.0616 1.41822 16.1162 1.28903 15.9531 1.12651C15.821 0.994868 15.7256 1.0098 15.4135 1.21085ZM19.4553 5.35363C19.5647 5.4996 19.5396 5.66667 19.3868 5.80846C19.2858 5.90227 19.2645 5.9025 10.0003 5.90102C2.77478 5.89986 0.69879 5.88701 0.641328 5.84305C0.552181 5.77485 0.459264 5.60875 0.459264 5.51768C0.459264 5.48119 0.502721 5.39629 0.555763 5.32901L0.652309 5.20673L10.0076 5.21847L19.3628 5.23015L19.4553 5.35363ZM10.2546 6.57856C10.3774 6.63661 10.6874 7.05129 11.7505 8.58002C12.4881 9.64052 13.1202 10.5603 13.1552 10.624C13.2409 10.7801 13.2312 11.0653 13.1347 11.2281C12.9593 11.5241 13.0799 11.5131 9.9975 11.5131C6.83388 11.5131 7.01254 11.5338 6.82438 11.1464C6.73031 10.9527 6.7284 10.9282 6.7941 10.7512C6.83257 10.6475 7.47661 9.68253 8.2253 8.60692C9.40883 6.90648 9.60871 6.64204 9.75709 6.58064C9.97745 6.48948 10.0656 6.48911 10.2546 6.57856Z" fill="#525252"/>
</svg>
